# xmcd
#
# Track frame offsets:
# 150
# 17907
# 36282
# 52791
# 73623
# 97498
# 112242
# 143726
# 166149
#
# Disc length: 2394 seconds
#
# Revision: 1
# Processed by: cddbd v1.5.2PL0 Copyright (c) Steve Scherf et al.
# Submitted via: CedeCatalogueitor 2.6.0.6 http://personales.ya.com/cdcatalogueitor
#
DISCID=7e095809
DTITLE=Souvenir - Drums, Sex And Dance
DYEAR=1900
DGENRE=
TTITLE0=Drum, Sex And Dance
TTITLE1=Ta Machine
TTITLE2=Monkey See Monkey Do
TTITLE3=De Sang Froid
TTITLE4=Fille D0en Face
TTITLE5=Rrr
TTITLE6=The Sun Goes Out
TTITLE7=A Cause De Moi
TTITLE8=Fin
EXTD=
EXTT0=
EXTT1=
EXTT2=
EXTT3=
EXTT4=
EXTT5=
EXTT6=
EXTT7=
EXTT8=
PLAYORDER=
